<svg width="44" height="44" viewBox="0 0 44 44" fill="none" xmlns="http://www.w3.org/2000/svg">
<mask id="mask0_204_4867" style="mask-type:luminance" maskUnits="userSpaceOnUse" x="9" y="9" width="26" height="26">
<path fill-rule="evenodd" clip-rule="evenodd" d="M9.16667 9.16702H34.2418V34.2431H9.16667V9.16702Z" fill="white"/>
</mask>
<g mask="url(#mask0_204_4867)">
<path fill-rule="evenodd" clip-rule="evenodd" d="M15.1265 30.9545C15.8031 30.9545 16.4413 31.2112 17.1168 31.483C21.255 33.3964 26.1491 32.526 29.3376 29.3387C33.5446 25.1294 33.5446 18.2822 29.3376 14.0752C27.3006 12.0382 24.5916 10.917 21.7076 10.917C18.8225 10.917 16.1123 12.0394 14.0765 14.0764C10.8868 17.2637 10.0188 22.1579 11.9146 26.2564C12.1876 26.9319 12.4513 27.5899 12.4513 28.2735C12.4513 28.956 12.2168 29.6432 12.0103 30.2499C11.84 30.7492 11.5821 31.5029 11.7478 31.6685C11.91 31.8365 12.6683 31.5717 13.1688 31.4002C13.7696 31.1949 14.451 30.9592 15.1265 30.9545ZM21.6785 34.2434C19.8958 34.2434 18.1015 33.8665 16.4226 33.0895C15.928 32.8912 15.4648 32.7045 15.1323 32.7045C14.7496 32.7069 14.2351 32.8842 13.7381 33.0557C12.7185 33.4057 11.4491 33.842 10.51 32.9064C9.5743 31.9695 10.006 30.7037 10.3536 29.6852C10.5251 29.1835 10.7013 28.6655 10.7013 28.2735C10.7013 27.9515 10.5461 27.5409 10.3081 26.9494C8.12297 22.2302 9.1333 16.5427 12.8398 12.8385C15.2058 10.4714 18.3546 9.16702 21.7065 9.16702C25.0583 9.16702 28.2083 10.4702 30.5743 12.8374C35.465 17.728 35.465 25.6847 30.5743 30.5754C28.1768 32.974 24.9486 34.2434 21.6785 34.2434Z" fill="#370617"/>
</g>
<path fill-rule="evenodd" clip-rule="evenodd" d="M26.3124 23.3568C25.6684 23.3568 25.141 22.8353 25.141 22.1902C25.141 21.545 25.6579 21.0235 26.3019 21.0235H26.3124C26.9564 21.0235 27.479 21.545 27.479 22.1902C27.479 22.8353 26.9564 23.3568 26.3124 23.3568Z" fill="#370617"/>
<path fill-rule="evenodd" clip-rule="evenodd" d="M21.6354 23.3568C20.9914 23.3568 20.4641 22.8353 20.4641 22.1902C20.4641 21.545 20.9797 21.0235 21.6249 21.0235H21.6354C22.2794 21.0235 22.8021 21.545 22.8021 22.1902C22.8021 22.8353 22.2794 23.3568 21.6354 23.3568Z" fill="#370617"/>
<path fill-rule="evenodd" clip-rule="evenodd" d="M16.958 23.3568C16.314 23.3568 15.7867 22.8353 15.7867 22.1902C15.7867 21.545 16.3035 21.0235 16.9475 21.0235H16.958C17.602 21.0235 18.1247 21.545 18.1247 22.1902C18.1247 22.8353 17.602 23.3568 16.958 23.3568Z" fill="#370617"/>
</svg>
