<svg fill="none" height="14" viewBox="0 0 14 14" width="14" xmlns="http://www.w3.org/2000/svg">
    <path clip-rule="evenodd"
        d="M12.1046 12.7979H7.87372C7.63222 12.7979 7.43622 12.6019 7.43622 12.3604C7.43622 12.1189 7.63222 11.9229 7.87372 11.9229H12.1046C12.3461 11.9229 12.5421 12.1189 12.5421 12.3604C12.5421 12.6019 12.3461 12.7979 12.1046 12.7979Z"
        fill="#370617" fill-rule="evenodd" />
    <mask style="mask-type:luminance" height="12" id="mask0_65_2554" maskUnits="userSpaceOnUse"
        width="11" x="1" y="1">
        <path clip-rule="evenodd" d="M1.16687 1.75H11.1889V12.7981H1.16687V1.75Z" fill="white"
            fill-rule="evenodd" />
    </mask>
    <g mask="url(#mask0_65_2554)">
        <path clip-rule="evenodd"
            d="M7.64786 2.9263L2.15578 9.79505C2.05603 9.91988 2.01928 10.0809 2.05603 10.2355L2.45328 11.9184L4.22603 11.8962C4.39461 11.8945 4.55036 11.8192 4.65361 11.6909C6.53019 9.34296 10.1078 4.86646 10.2093 4.73521C10.3049 4.58005 10.3423 4.36071 10.2921 4.14955C10.2408 3.93313 10.106 3.74938 9.91178 3.63213C9.87036 3.60355 8.88744 2.84055 8.85711 2.81663C8.48728 2.5203 7.94769 2.57163 7.64786 2.9263ZM2.10795 12.7981C1.90553 12.7981 1.72936 12.6593 1.68211 12.4615L1.20436 10.4368C1.10578 10.0174 1.20378 9.58454 1.4727 9.24854L6.9677 2.37571C6.97003 2.37337 6.97178 2.37046 6.97411 2.36812C7.5767 1.64771 8.66636 1.54154 9.40136 2.13129C9.43053 2.15404 10.4064 2.91237 10.4064 2.91237C10.7611 3.12354 11.0382 3.50096 11.1432 3.94779C11.2476 4.38996 11.1718 4.84613 10.9285 5.23171C10.9104 5.26029 10.8947 5.28479 5.3367 12.2381C5.06895 12.5718 4.66761 12.766 4.23653 12.7713L2.11378 12.7981H2.10795Z"
            fill="#370617" fill-rule="evenodd" />
    </g>
    <path clip-rule="evenodd"
        d="M9.46367 6.81613C9.37033 6.81613 9.277 6.78638 9.19708 6.72572L6.01675 4.28272C5.82542 4.13572 5.78925 3.86155 5.93625 3.66905C6.08383 3.47772 6.358 3.44213 6.54992 3.58913L9.73083 6.03155C9.92217 6.17855 9.95833 6.4533 9.81075 6.64522C9.725 6.75722 9.59492 6.81613 9.46367 6.81613Z"
        fill="#370617" fill-rule="evenodd" />
</svg>
