<svg width="44" height="44" viewBox="0 0 44 44" fill="none" xmlns="http://www.w3.org/2000/svg">
<path d="M22 11.5C24.4127 11.5002 26.7661 12.2484 28.736 13.6416C30.7058 15.0347 32.1954 17.0042 32.9996 19.279C33.8037 21.5538 33.8829 24.022 33.2261 26.3436C32.5694 28.6652 31.2091 30.7262 29.3325 32.2427H14.6674C12.7909 30.7262 11.4306 28.6652 10.7739 26.3436C10.1171 24.022 10.1963 21.5538 11.0004 19.279C11.8046 17.0042 13.2941 15.0347 15.264 13.6416C17.2339 12.2484 19.5873 11.5002 22 11.5Z" stroke="#370617" stroke-width="1.7" stroke-linecap="round" stroke-linejoin="round"/>
<path d="M32.3713 17.9821H20.9628C20.7656 17.9823 20.571 18.0276 20.3938 18.1144C20.2167 18.2013 20.0617 18.3274 19.9407 18.4831C19.8197 18.6389 19.7358 18.8203 19.6955 19.0134C19.6551 19.2065 19.6594 19.4062 19.7079 19.5974C20.3652 22.1903 21.777 24.0286 23.9446 25.1124C26.5375 26.4088 29.562 27.057 33.0195 27.057" stroke="#370617" stroke-width="1.7" stroke-linecap="round" stroke-linejoin="round"/>
</svg>
