<svg width="44" height="44" viewBox="0 0 44 44" fill="none" xmlns="http://www.w3.org/2000/svg">
<mask id="mask0_204_4879" style="mask-type:luminance" maskUnits="userSpaceOnUse" x="12" y="24" width="20" height="10">
<path fill-rule="evenodd" clip-rule="evenodd" d="M12.6667 24.9121H31.1465V33.5151H12.6667V24.9121Z" fill="white"/>
</mask>
<g mask="url(#mask0_204_4879)">
<path fill-rule="evenodd" clip-rule="evenodd" d="M21.9077 26.6621C16.9365 26.6621 14.4165 27.5161 14.4165 29.2019C14.4165 30.9029 16.9365 31.7651 21.9077 31.7651C26.8777 31.7651 29.3965 30.9111 29.3965 29.2253C29.3965 27.5243 26.8777 26.6621 21.9077 26.6621ZM21.9077 33.5151C19.6222 33.5151 12.6665 33.5151 12.6665 29.2019C12.6665 25.3566 17.941 24.9121 21.9077 24.9121C24.1932 24.9121 31.1465 24.9121 31.1465 29.2253C31.1465 33.0706 25.8732 33.5151 21.9077 33.5151Z" fill="#370617"/>
</g>
<mask id="mask1_204_4879" style="mask-type:luminance" maskUnits="userSpaceOnUse" x="15" y="10" width="14" height="13">
<path fill-rule="evenodd" clip-rule="evenodd" d="M15.7115 10.3334H28.1016V22.7218H15.7115V10.3334Z" fill="white"/>
</mask>
<g mask="url(#mask1_204_4879)">
<path fill-rule="evenodd" clip-rule="evenodd" d="M21.9077 11.999C19.4099 11.999 17.3776 14.0301 17.3776 16.528C17.3694 19.0176 19.3866 21.0476 21.8739 21.057L21.9077 21.89V21.057C24.4044 21.057 26.4356 19.0246 26.4356 16.528C26.4356 14.0301 24.4044 11.999 21.9077 11.999ZM21.9077 22.7218H21.8704C18.4614 22.7113 15.6999 19.9311 15.7116 16.5245C15.7116 13.112 18.4906 10.333 21.9077 10.333C25.3237 10.333 28.1016 13.112 28.1016 16.528C28.1016 19.944 25.3237 22.7218 21.9077 22.7218Z" fill="#370617"/>
</g>
</svg>
