<svg fill="none" height="37" viewBox="0 0 27 37" width="27" xmlns="http://www.w3.org/2000/svg">
    <path
        d="M9.41828 13.7867V4.02004C9.41828 2.53671 10.6216 1.33337 12.1049 1.33337C13.5883 1.33337 14.7899 2.53671 14.7899 4.02004V12.0767"
        stroke="white" stroke-linecap="round" stroke-width="2" />
    <path
        d="M5.75663 19.4016L2.12997 7.31497C2.02909 6.97981 1.99585 6.62793 2.03222 6.2798C2.06858 5.93168 2.1738 5.59426 2.34177 5.28718C2.50973 4.98009 2.73708 4.70948 3.0106 4.49107C3.28411 4.27266 3.59833 4.11082 3.93497 4.01497C4.26973 3.91957 4.62004 3.89127 4.96578 3.93169C5.31151 3.97212 5.64585 4.08048 5.94957 4.25053C6.25329 4.42059 6.5204 4.649 6.73556 4.92263C6.95072 5.19626 7.10968 5.50971 7.2033 5.84497L9.41997 13.785M20.3 13.4166L18.5416 17.3183C18.2699 17.9642 18.2612 18.6907 18.5175 19.3429C18.7738 19.9951 19.2747 20.5213 19.9135 20.8094C20.5523 21.0975 21.2783 21.1246 21.9368 20.8849C22.5953 20.6453 23.1341 20.1579 23.4383 19.5266L25.2 15.625C25.345 15.3032 25.4252 14.9561 25.436 14.6033C25.4469 14.2506 25.3881 13.8992 25.2631 13.5692C25.0107 12.9026 24.5039 12.3636 23.8541 12.0708C23.2044 11.778 22.4649 11.7552 21.7983 12.0076C21.1318 12.26 20.5928 12.7669 20.3 13.4166Z"
        stroke="white" stroke-linecap="round" stroke-width="2" />
    <path
        d="M13.4666 18.435C13.1259 17.4893 13.1666 16.448 13.58 15.5317L15.3683 11.565C15.5112 11.2482 15.7153 10.9627 15.9688 10.7249C16.2224 10.4871 16.5203 10.3017 16.8457 10.1794C17.171 10.0571 17.5173 10.0002 17.8647 10.012C18.2121 10.0239 18.5537 10.1042 18.87 10.2484C19.1912 10.3949 19.4798 10.6045 19.7187 10.8646C19.9575 11.1246 20.1418 11.43 20.2605 11.7626C20.3792 12.0951 20.43 12.4481 20.4099 12.8007C20.3898 13.1532 20.2991 13.4981 20.1433 13.815L19.9183 14.275"
        stroke="white" stroke-linecap="round" stroke-width="2" />
    <path
        d="M9.90499 27.4617L9.08499 25.8217C9.06568 25.7832 9.05505 25.741 9.05387 25.698C9.05268 25.655 9.06097 25.6123 9.07815 25.5728C9.09533 25.5334 9.12097 25.4982 9.15326 25.4698C9.18555 25.4414 9.22369 25.4204 9.26499 25.4084L15.1817 23.6684C15.7565 23.4993 16.254 23.1341 16.5874 22.6362C16.9209 22.1383 17.0692 21.5393 17.0067 20.9434C16.9363 20.2732 16.6047 19.6577 16.0837 19.2303C15.5627 18.8029 14.8943 18.598 14.2233 18.66L6.24332 19.4034C6.24332 19.4034 -0.106676 20.38 2.09332 26.7284C4.28999 33.0783 5.02166 35.275 9.90499 35.275H18.2067C20.0848 35.275 21.8861 34.5289 23.2142 33.2008C24.5422 31.8728 25.2883 30.0715 25.2883 28.1933L25.5333 14.52"
        stroke="white" stroke-linecap="round" stroke-width="2" />
</svg>